<?xml version="1.0" encoding="utf-8"?>
<!-- Generator: Adobe Illustrator 16.0.0, SVG Export Plug-In . SVG Version: 6.00 Build 0)  -->
<!DOCTYPE svg PUBLIC "-//W3C//DTD SVG 1.1//EN" "http://www.w3.org/Graphics/SVG/1.1/DTD/svg11.dtd">
<svg version="1.1" id="Layer_1" xmlns="http://www.w3.org/2000/svg" xmlns:xlink="http://www.w3.org/1999/xlink" x="0px" y="0px"
	 width="100px" height="100px" viewBox="0 0 100 100" enable-background="new 0 0 100 100" xml:space="preserve">
<g id="XMLID_2_">
	<g id="XMLID_8_">
		<g id="XMLID_9_">
			<path id="XMLID_10_" fill="#FFFFFF" d="M43.161,62.004c0,2.338-1.896,4.232-4.233,4.232h-0.126c-2.338,0-4.232-1.895-4.232-4.232
				V38.125c0-2.337,1.895-4.233,4.232-4.233h0.126c2.338,0,4.233,1.896,4.233,4.233V62.004z M42.15,38.125
				c0-1.779-1.443-3.222-3.223-3.222h-0.126c-1.779,0-3.222,1.443-3.222,3.222v23.879c0,1.779,1.442,3.223,3.222,3.223h0.126
				c1.779,0,3.223-1.443,3.223-3.223V38.125z"/>
		</g>
		<g id="XMLID_13_">
			<path id="XMLID_14_" fill="#FFFFFF" d="M54.785,62.004c0,2.338-1.896,4.232-4.233,4.232h-0.126c-2.338,0-4.232-1.895-4.232-4.232
				V38.125c0-2.337,1.895-4.233,4.232-4.233h0.126c2.338,0,4.233,1.896,4.233,4.233V62.004z M53.773,38.125
				c0-1.779-1.442-3.222-3.222-3.222h-0.126c-1.779,0-3.222,1.443-3.222,3.222v23.879c0,1.779,1.442,3.223,3.222,3.223h0.126
				c1.779,0,3.222-1.443,3.222-3.223V38.125z"/>
		</g>
		<g id="XMLID_17_">
			<path id="XMLID_18_" fill="#FFFFFF" d="M66.409,62.004c0,2.338-1.896,4.232-4.233,4.232H62.05c-2.338,0-4.232-1.895-4.232-4.232
				V38.125c0-2.337,1.895-4.233,4.232-4.233h0.126c2.338,0,4.233,1.896,4.233,4.233V62.004z M65.398,38.125
				c0-1.779-1.443-3.222-3.223-3.222H62.05c-1.779,0-3.222,1.443-3.222,3.222v23.879c0,1.779,1.442,3.223,3.222,3.223h0.126
				c1.779,0,3.223-1.443,3.223-3.223V38.125z"/>
		</g>
		<path id="XMLID_21_" fill="#FFFFFF" d="M41.645,61.563c0,1.465-1.188,2.652-2.653,2.652h-0.253c-1.465,0-2.653-1.188-2.653-2.652
			v-3.285c0-1.466,1.188-2.654,2.653-2.654h0.253c1.465,0,2.653,1.188,2.653,2.654V61.563z"/>
		<path id="XMLID_22_" fill="#FFFFFF" d="M53.269,61.563c0,1.465-1.188,2.652-2.653,2.652h-0.253c-1.465,0-2.653-1.188-2.653-2.652
			V51.201c0-1.465,1.188-2.653,2.653-2.653h0.253c1.465,0,2.653,1.188,2.653,2.653V61.563z"/>
		<path id="XMLID_23_" fill="#FFFFFF" d="M64.893,61.436c0,1.535-1.245,2.779-2.779,2.779l0,0c-1.535,0-2.78-1.244-2.78-2.779V47.79
			c0-1.535,1.245-2.78,2.78-2.78l0,0c1.534,0,2.779,1.245,2.779,2.78V61.436z"/>
	</g>
</g>
</svg>
