<?xml version="1.0" encoding="utf-8"?>
<!-- Generator: Adobe Illustrator 16.0.0, SVG Export Plug-In . SVG Version: 6.00 Build 0)  -->
<!DOCTYPE svg PUBLIC "-//W3C//DTD SVG 1.1//EN" "http://www.w3.org/Graphics/SVG/1.1/DTD/svg11.dtd">
<svg version="1.1" id="Layer_1" xmlns="http://www.w3.org/2000/svg" xmlns:xlink="http://www.w3.org/1999/xlink" x="0px" y="0px"
	 width="100px" height="100px" viewBox="0 0 100 100" enable-background="new 0 0 100 100" xml:space="preserve">
<g id="XMLID_40_">
	<g id="XMLID_46_">
		<path id="XMLID_47_" fill="#FFFFFF" d="M81.72,21.97c0-1.95-1.581-3.531-3.531-3.531s-3.531,1.581-3.531,3.531
			c0,1.652,1.137,3.036,2.669,3.421l0.011,1.842c-11.796-2.508-18.648-3.967-20.85-4.436c-0.233-0.084-0.464-0.134-0.689-0.146
			c-0.064-0.014-0.099-0.021-0.099-0.021l-0.005,0.02c-0.184-0.001-0.364,0.02-0.539,0.069c-0.226,0.065-0.434,0.171-0.625,0.314
			l-0.001-0.003l-2.498,1.527c2.31,2.207,5.935,7.454,5.507,18.383l2.746-0.304c0.186,0.003,0.366-0.016,0.542-0.066
			c0.44-0.126,0.817-0.417,1.127-0.841l15.394-12.873l0.312,52.091l1.767-0.011L79.092,25.38
			C80.604,24.981,81.72,23.608,81.72,21.97z M62.781,39.656c0.438-2.124,0.247-5.146-0.65-8.282c-0.855-2.99-2.185-5.505-3.59-7.056
			c3.285,0.699,9.241,1.967,18.002,3.83L62.781,39.656z"/>
		<path id="XMLID_50_" fill="#FFFFFF" d="M41.015,31.292c1.688,2.587,3.317,6.721,3.481,13.092l4.956-0.549
			c-0.044-8.527-2.797-12.873-4.676-14.844L41.015,31.292z"/>
		<path id="XMLID_51_" fill="#FFFFFF" d="M29.726,38.194c0.851,1.962,1.555,4.465,1.88,7.617l4.69-0.52
			c-0.311-4.356-1.37-7.436-2.537-9.563L29.726,38.194z"/>
		<path id="XMLID_52_" fill="#FFFFFF" d="M19.043,44.789v0.001c-0.506,0.206-0.471,0.793-0.275,1.372
			c0.198,0.59,0.607,0.997,0.988,0.951c0.002,0.004-0.01,0.008-0.009,0.012l4.319-0.479c-0.236-1.671-0.537-3.121-0.956-4.374
			L19.043,44.789z"/>
		<path id="XMLID_53_" fill="#FFFFFF" d="M35.278,34.799c1.291,2.327,2.438,5.649,2.775,10.297l4.679-0.518
			c-0.137-6.126-1.694-10.004-3.238-12.357L35.278,34.799z"/>
		<path id="XMLID_54_" fill="#FFFFFF" d="M50.458,25.519l-4.136,2.529c2.111,2.337,4.817,7.007,4.896,15.592l4.546-0.503
			C56.263,32.003,52.381,27.197,50.458,25.519z"/>
		<path id="XMLID_55_" fill="#FFFFFF" d="M24.606,41.323c0.514,1.453,0.94,3.151,1.214,5.128l4.027-0.446
			c-0.296-2.842-0.914-5.101-1.657-6.874L24.606,41.323z"/>
	</g>
</g>
</svg>
