<?xml version="1.0" encoding="utf-8"?>
<!-- Generator: Adobe Illustrator 16.0.0, SVG Export Plug-In . SVG Version: 6.00 Build 0)  -->
<!DOCTYPE svg PUBLIC "-//W3C//DTD SVG 1.1//EN" "http://www.w3.org/Graphics/SVG/1.1/DTD/svg11.dtd">
<svg version="1.1" id="Layer_1" xmlns="http://www.w3.org/2000/svg" xmlns:xlink="http://www.w3.org/1999/xlink" x="0px" y="0px"
	 width="100px" height="100px" viewBox="0 0 100 100" enable-background="new 0 0 100 100" xml:space="preserve">
<g id="XMLID_24_">
	<g id="XMLID_30_">
		<path id="XMLID_31_" fill="#FFFFFF" d="M46.167,40.014l-0.005-0.049c-0.022-0.146-0.569-3.608-3.549-5.179
			c-2.317-1.222-5.378-0.929-9.095,0.868c-0.266,0.114-0.58,0.417-0.615,0.591c-0.151,0.746,0.383,1.106,0.954,0.908
			c0.122-0.043-0.088-0.069,0.417-0.134v0.001c2.527-1.599,5.829-1.909,7.714-0.923c2.212,1.158,2.693,3.818,2.738,4.067
			c0.226,2.838-0.407,4.972-1.843,6.341c-2.358,2.248-6.249,1.794-6.287,1.789l-0.059,0.014H13.552v1.516h22.889
			c0.144,0,0.539,0.022,1.096,0.022c1.544,0,4.325-0.318,6.346-2.238C45.67,45.909,46.439,43.342,46.167,40.014z"/>
		<g id="XMLID_32_">
			<path id="XMLID_33_" fill="#FFFFFF" d="M54.898,24.433c0.063,2.11-2.459,3.042-2.459,3.042c-1.75,0.658-2.763,1.365-3.632,2.297
				c-0.683,0.931-0.9,1.77-0.9,2.824c0,1.076,0.476,2.042,1.229,2.717c0.094-0.034,0.189-0.068,0.287-0.098l-0.021,0.007
				c0.84-0.302,1.617-0.781,2.28-1.395c0.174-0.159,0.339-0.328,0.498-0.503c-0.194-0.435-0.32-0.871-0.406-1.324
				c-0.087-0.465-0.12-0.94-0.086-1.41c0.061-0.942,0.432-1.855,1.046-2.549c-0.565,0.734-0.862,1.648-0.86,2.556
				c-0.002,0.454,0.061,0.906,0.173,1.344c0.095,0.369,0.233,0.731,0.397,1.068c0.338-0.413,0.644-0.856,0.91-1.323
				c0.451-0.797,0.807-1.65,1.081-2.53c0.272-0.881,0.478-1.786,0.579-2.705c-0.062,0.923-0.227,1.841-0.462,2.738
				c-0.237,0.898-0.558,1.778-0.983,2.612c-0.426,0.832-0.963,1.619-1.632,2.291c-0.144,0.145-0.296,0.281-0.452,0.414
				c0.24,0.005,0.48,0,0.719-0.021c0.431-0.04,0.859-0.126,1.27-0.27c0.822-0.278,1.564-0.829,2.03-1.589
				c-0.41,0.79-1.128,1.413-1.962,1.763c-0.416,0.179-0.855,0.299-1.303,0.372c-0.392,0.063-0.781,0.093-1.186,0.081
				c-0.451,0.329-0.937,0.613-1.455,0.828c0.6,0.39,1.321,0.618,2.096,0.618c1.887,0,3.568-0.838,4.314-2.575
				C57.435,29.926,54.898,24.433,54.898,24.433z"/>
			<polygon id="XMLID_34_" fill="#FFFFFF" points="49.582,35.678 49.581,35.678 49.579,35.679 			"/>
			<path id="XMLID_35_" fill="#FFFFFF" d="M47.933,36.006c-0.428,0.278-0.819,0.631-1.11,1.065
				c-0.294,0.432-0.469,0.945-0.509,1.461c-0.043,0.518,0.039,1.029,0.185,1.509l0.006-0.003c0.021,0.159,0.182,0.284,0.385,0.284
				c0.216,0,0.392-0.141,0.392-0.314c0-0.068-0.033-0.129-0.079-0.181l0.013-0.003c-0.145-0.411-0.231-0.836-0.216-1.253
				c0.015-0.417,0.132-0.824,0.354-1.187c0.219-0.363,0.536-0.68,0.901-0.94c0.364-0.258,0.791-0.477,1.208-0.615l0.024-0.008
				c0.005-0.002,0.011-0.005,0.017-0.007c-0.166-0.104-0.32-0.221-0.466-0.347C48.645,35.605,48.282,35.783,47.933,36.006z"/>
		</g>
		<g id="XMLID_36_">
			<path id="XMLID_363_" fill="#FFFFFF" d="M76.258,62.137c-2.053,0.493-3.48-1.786-3.48-1.786c-1.002-1.578-1.902-2.426-2.99-3.086
				c-1.051-0.478-1.918-0.519-2.949-0.303c-1.053,0.22-1.902,0.882-2.408,1.758c0.053,0.085,0.105,0.171,0.154,0.261l-0.012-0.02
				c0.468,0.761,1.096,1.423,1.831,1.947c0.192,0.137,0.392,0.265,0.595,0.384c0.386-0.278,0.787-0.49,1.213-0.668
				c0.438-0.18,0.896-0.31,1.363-0.372c0.935-0.134,1.904,0.044,2.709,0.502c-0.836-0.403-1.791-0.506-2.678-0.318
				c-0.445,0.09-0.875,0.244-1.28,0.443c-0.341,0.168-0.669,0.378-0.965,0.606c0.475,0.247,0.97,0.456,1.482,0.621
				c0.872,0.278,1.78,0.452,2.698,0.541c0.916,0.086,1.844,0.103,2.766,0.015c-0.917,0.128-1.848,0.153-2.775,0.107
				c-0.928-0.049-1.855-0.184-2.758-0.429c-0.902-0.247-1.781-0.611-2.576-1.129c-0.172-0.111-0.336-0.232-0.498-0.358
				c0.044,0.235,0.099,0.471,0.168,0.698c0.127,0.415,0.299,0.816,0.523,1.189c0.441,0.747,1.132,1.361,1.971,1.662
				c-0.857-0.24-1.615-0.815-2.127-1.561c-0.26-0.37-0.468-0.776-0.631-1.199c-0.141-0.37-0.25-0.746-0.321-1.144
				c-0.414-0.374-0.792-0.792-1.108-1.255c-0.26,0.667-0.336,1.419-0.177,2.179c0.386,1.846,1.55,3.321,3.403,3.694
				C71.398,65.742,76.258,62.137,76.258,62.137z"/>
			<polygon id="XMLID_362_" fill="#FFFFFF" points="64.163,59.23 64.162,59.23 64.162,59.229 			"/>
			<path id="XMLID_361_" fill="#FFFFFF" d="M63.504,57.685c-0.359-0.362-0.784-0.674-1.27-0.869
				c-0.482-0.199-1.021-0.266-1.533-0.199c-0.516,0.063-0.999,0.249-1.439,0.488l0.004,0.006c-0.152,0.053-0.242,0.236-0.2,0.435
				c0.044,0.211,0.219,0.354,0.39,0.319c0.066-0.015,0.118-0.059,0.16-0.114l0.006,0.013c0.372-0.226,0.77-0.396,1.182-0.468
				c0.412-0.07,0.834-0.039,1.234,0.104c0.4,0.14,0.774,0.386,1.104,0.69c0.327,0.303,0.628,0.675,0.849,1.057l0.013,0.021
				c0.003,0.005,0.007,0.01,0.011,0.015c0.067-0.183,0.15-0.358,0.244-0.527C64.043,58.299,63.794,57.98,63.504,57.685z"/>
		</g>
		<g id="XMLID_37_">
			<path id="XMLID_360_" fill="#FFFFFF" d="M85.956,36.21c-1.68,1.28-3.905-0.23-3.905-0.23c-1.553-1.041-2.718-1.453-3.98-1.619
				c-1.154-0.013-1.963,0.299-2.82,0.911c-0.875,0.627-1.385,1.574-1.496,2.58c0.083,0.057,0.165,0.114,0.246,0.178l-0.018-0.014
				c0.734,0.507,1.576,0.86,2.461,1.043c0.23,0.049,0.464,0.085,0.699,0.111c0.24-0.409,0.521-0.766,0.84-1.1
				c0.328-0.341,0.695-0.646,1.098-0.891c0.801-0.498,1.76-0.728,2.682-0.632c-0.928-0.033-1.843,0.259-2.58,0.787
				c-0.37,0.262-0.701,0.576-0.992,0.922c-0.244,0.293-0.459,0.616-0.638,0.944c0.533,0.035,1.071,0.026,1.606-0.029
				c0.91-0.097,1.812-0.304,2.687-0.592c0.874-0.291,1.729-0.651,2.538-1.103c-0.788,0.486-1.63,0.886-2.497,1.218
				c-0.868,0.329-1.771,0.58-2.696,0.72c-0.926,0.137-1.877,0.158-2.813,0.005c-0.201-0.032-0.401-0.077-0.6-0.127
				c0.135,0.197,0.28,0.391,0.436,0.571c0.284,0.328,0.603,0.626,0.958,0.877c0.705,0.506,1.585,0.789,2.473,0.728
				c-0.881,0.125-1.806-0.096-2.574-0.572c-0.387-0.233-0.741-0.521-1.062-0.842c-0.278-0.282-0.528-0.582-0.755-0.917
				c-0.529-0.176-1.043-0.405-1.52-0.702c0.031,0.715,0.265,1.434,0.717,2.064c1.096,1.534,2.757,2.415,4.604,2.01
				C82.963,41.469,85.956,36.21,85.956,36.21z"/>
			<polygon id="XMLID_359_" fill="#FFFFFF" points="73.717,38.427 73.716,38.426 73.713,38.425 			"/>
			<path id="XMLID_358_" fill="#FFFFFF" d="M72.49,37.277c-0.475-0.187-0.989-0.3-1.512-0.283c-0.522,0.012-1.042,0.168-1.484,0.436
				c-0.446,0.266-0.814,0.63-1.12,1.027l0.005,0.004c-0.117,0.109-0.125,0.313-0.008,0.478c0.127,0.177,0.344,0.237,0.485,0.136
				c0.056-0.04,0.085-0.102,0.101-0.168l0.011,0.009c0.25-0.357,0.545-0.674,0.894-0.904c0.348-0.231,0.747-0.373,1.171-0.403
				c0.423-0.032,0.864,0.041,1.289,0.187c0.422,0.146,0.848,0.365,1.203,0.625l0.021,0.015c0.004,0.003,0.011,0.007,0.016,0.01
				c-0.013-0.195-0.007-0.389,0.01-0.581C73.23,37.622,72.875,37.431,72.49,37.277z"/>
		</g>
		<path id="XMLID_38_" fill="#FFFFFF" d="M67.395,45.228l-0.005-0.049c-0.022-0.146-0.569-3.607-3.55-5.179
			c-2.316-1.222-5.377-0.929-9.095,0.868c-0.267,0.114-0.58,0.417-0.615,0.591c-0.151,0.746,0.383,1.105,0.953,0.908
			c0.122-0.042-0.089-0.07,0.417-0.134v0.001c2.526-1.6,5.83-1.91,7.715-0.923c2.212,1.158,2.693,3.818,2.737,4.067
			c0.228,2.838-0.405,4.972-1.842,6.341c-2.358,2.248-6.249,1.714-6.287,1.709l-0.06-0.066h-21.65h-1.117H13.552v1.517h21.445h1.117
			h21.554c0.145,0,0.54,0.102,1.096,0.102c1.545,0,4.326-0.277,6.347-2.198C66.898,51.083,67.667,48.557,67.395,45.228z"/>
		<path id="XMLID_39_" fill="#FFFFFF" d="M55.801,61.224c-2.021-1.921-4.802-2.291-6.347-2.291c-0.556,0-0.952-0.011-1.096-0.011
			H36.114H25.687H13.552v1.516h12.135h10.427h12.339l0.058,0.047c0.038-0.005,3.929-0.456,6.287,1.792
			c1.435,1.369,2.065,3.517,1.839,6.354c-0.044,0.25-0.666,2.917-2.879,4.075c-1.886,0.987-4.829,0.682-7.861-0.917v0.002
			c0-0.064-0.149-0.091-0.271-0.134c-0.569-0.197-1.025,0.164-0.875,0.908c0.036,0.175,0.383,0.478,0.649,0.592
			c3.718,1.797,6.795,2.091,9.114,0.868c2.979-1.57,3.535-5.032,3.557-5.179l0.01-0.049C58.352,65.47,57.588,62.924,55.801,61.224z"
			/>
	</g>
</g>
</svg>
